<svg xmlns="http://www.w3.org/2000/svg" viewBox="0 0 820 560" role="img" aria-label="Normal vein versus varicose vein illustration">
<defs><linearGradient id="card" x1="0" x2="1" y1="0" y2="1"><stop offset="0" stop-color="#ffffff"/><stop offset="1" stop-color="#eef7ff"/></linearGradient><filter id="shadow" x="-20%" y="-20%" width="140%" height="140%"><feDropShadow dx="0" dy="18" stdDeviation="18" flood-color="#0b2239" flood-opacity=".16"/></filter></defs>
<rect width="820" height="560" rx="40" fill="#f6f9fc"/>
<g filter="url(#shadow)"><rect x="48" y="56" width="330" height="430" rx="34" fill="url(#card)"/><rect x="442" y="56" width="330" height="430" rx="34" fill="url(#card)"/></g>
<text x="112" y="112" font-family="Arial, sans-serif" font-size="30" font-weight="700" fill="#0b2239">Normal Vein</text>
<text x="492" y="112" font-family="Arial, sans-serif" font-size="30" font-weight="700" fill="#0b2239">Varicose Vein</text>
<rect x="185" y="155" width="54" height="250" rx="27" fill="#1c5aa6" opacity=".92"/>
<path d="M211 386V178" stroke="#fff" stroke-width="10" stroke-linecap="round" opacity=".85"/>
<path d="M184 246l28-23 27 23M184 322l28-23 27 23" fill="none" stroke="#b7ddff" stroke-width="9" stroke-linecap="round" stroke-linejoin="round"/>
<path d="M604 152c-45 40 38 73-7 112-45 40 40 72-6 114" fill="none" stroke="#7d2a91" stroke-width="58" stroke-linecap="round" opacity=".96"/>
<path d="M604 152c-45 40 38 73-7 112-45 40 40 72-6 114" fill="none" stroke="#be2048" stroke-width="12" stroke-linecap="round" opacity=".9"/>
<path d="M561 235c32-4 54 5 68 29M563 330c34 1 58 16 69 43" fill="none" stroke="#fff" stroke-width="9" stroke-linecap="round"/>
<g font-family="Arial, sans-serif" font-size="19" fill="#4d5c68"><text x="101" y="447">Healthy valve</text><text x="88" y="472">Blood flows upward</text><text x="506" y="447">Damaged valve</text><text x="492" y="472">Backward blood pooling</text></g>
<g fill="#12a66a"><circle cx="82" cy="440" r="8"/><circle cx="82" cy="465" r="8"/></g>
<g fill="#be2048"><circle cx="486" cy="440" r="8"/><circle cx="486" cy="465" r="8"/></g>
<path d="M213 390l-22-36h44z" fill="#12a66a"/><path d="M600 173l28 26h-47z" fill="#be2048"/>
</svg>
